# xmcd CD database file
#
# Track frame offsets:
#	150
#	14482
#	25093
#	37880
#	44968
#	48313
#	63799
#	79004
#	97016
#	113831
#	128856
#	151814
#	170678
#	194677
#	212915
#	230670
#	244169
#	263842
#	278830
#	288328
#
# Disc length: 4105 seconds
#
# Revision: 0
# Processed by: cddbd v1.5.1PL2 Copyright (c) Steve Scherf et al.
# Submitted via: CDex 1.51
#
DISCID=22100714
DTITLE=Ольга Арефьева и Ковчег - Крутится-Вертится
DYEAR=2005
DGENRE=Country
TTITLE0=Шар голубой
TTITLE1=В пятницу 13-го
TTITLE2=Была я уличной певицей
TTITLE3=Костюмчик новенький
TTITLE4=Виновата ли я
TTITLE5=Динь-динь-динь
TTITLE6=Яблочко
TTITLE7=Ах, зачем эта ночь
TTITLE8=Фрейлехс (Пропил я)
TTITLE9=Верная жена
TTITLE10=Мотенька
TTITLE11=Одна могила
TTITLE12=Не для меня
TTITLE13=Сиртаки
TTITLE14=Ломами бьют
TTITLE15=Шарабан-американка
TTITLE16=Цыпленок жареный
TTITLE17=Картонное пальто
TTITLE18=Рассказ
TTITLE19=Свадьба
EXTD=YEAR: 2005
EXTT0=
EXTT1=
EXTT2=
EXTT3=
EXTT4=
EXTT5=
EXTT6=
EXTT7=
EXTT8=
EXTT9=
EXTT10=
EXTT11=
EXTT12=
EXTT13=
EXTT14=
EXTT15=
EXTT16=
EXTT17=
EXTT18=
EXTT19=
PLAYORDER=
